<svg xmlns="http://www.w3.org/2000/svg" viewBox="-0.796 0.795 249.84 248.249" width="249.84" height="248.249">
    <path d="M 247.514 152.403 L 139.058 71.801 C 139.86 59.349 140.383 31.545 139.912 26.383 C 135.972 -16.883 108.682 1.753 108.429 21.063 C 108.36 26.344 107.414 53.661 107.324 71.9 L 0.284 154.376 L 0 180.196 L 110.501 129.713 L 114.494 210.005 L 82.451 232.943 L 82.247 249.84 L 124.519 238.245 L 124.527 238.384 L 167.24 249.303 L 166.731 232.421 L 134.277 210.022 L 136.889 129.67 L 248.249 178.176 L 247.514 152.403 L 247.514 152.403 Z" transform="matrix(0, 1, -1, 0, 249.044464, 0.79546)"/>
</svg>
